<svg xmlns="http://www.w3.org/2000/svg" version="1.1" xmlns:xlink="http://www.w3.org/1999/xlink" xmlns:svgjs="http://svgjs.dev/svgjs" width="1000" height="1000" viewBox="0 0 1000 1000"><rect width="1000" height="1000" fill="#1cd466"></rect><g transform="matrix(0.7,0,0,0.7,150.0000000000001,106.25)"><svg viewBox="0 0 320 360" data-background-color="#1cd466" preserveAspectRatio="xMidYMid meet" height="1125" width="1000" xmlns="http://www.w3.org/2000/svg" xmlns:xlink="http://www.w3.org/1999/xlink"><g id="tight-bounds" transform="matrix(1,0,0,1,0,0)"><svg viewBox="0 0 320 360" height="360" width="320"><g><svg></svg></g><g><svg viewBox="0 0 320 360" height="360" width="320"><g><path xmlns="http://www.w3.org/2000/svg" d="M20.961 227.22l3.726 4.658-1.863-6.056c-0.466-2.795-3.726 0.466-1.863 1.398M25.153 224.425c1.397 2.329 2.795 4.658 2.795 6.987 0 3.261 2.795 4.658 5.123 5.589-3.261-3.726-5.124-13.974-7.918-12.576M204.017 26.929c7.918 0 15.371-0.932 23.756 0.931 20.495 5.124 37.729 15.371 49.374 29.811l32.606 52.169c1.397 13.042 4.192 27.482 3.726 43.319 3.261 0 2.795-4.658 6.521-5.59-3.726 9.316-5.59 20.961-6.521 34.469-2.329-7.453 0-18.632 0.466-24.687-3.261 5.124-5.124 1.397-5.124-0.932 0.466-3.726-1.397-3.261-2.795-4.658-5.124-4.658-8.384-9.782-12.11-17.7 2.329-6.055 2.795-14.905-4.658-19.563-2.329-1.397-5.124-3.726-6.521-7.453-1.863-5.124-5.124-11.179-4.193-19.097 0.466-2.329-6.987 5.124-11.179 1.863-18.166-12.576-36.332-27.016-58.224-39.127-11.645 0-20.029-4.192-24.221-9.316-3.726-4.658-0.932-10.713 4.658-11.179 3.261 0 6.987-0.932 9.782 0.932 0.466-1.863 2.329-4.192 4.657-4.192M157.904 16.215l0.932 0.466c4.658 0.932 6.987 7.453 12.11 5.124 0 3.261 0.466 6.521-0.466 8.85-1.397 3.726-5.59 3.726-8.85 3.726-31.208-1.863-49.374 11.179-68.471 22.358-5.124 3.261-10.713 5.59-14.906 9.782-20.029 18.632-41.921 35.866-47.045 70.335l-4.192 38.195c-0.466 4.192-5.124 8.384-4.192 13.508l3.26 22.824c-3.261-3.261-5.124 0.932-4.192 2.795 0.466 1.397 2.329 6.055 5.124 1.863 3.726 6.987 7.453 20.495 12.576 26.55 15.837 18.632 36.332 35.4 53.101 52.169 4.192-0.932 7.453-0.932 8.384-3.727 1.397 2.795-1.397 5.59-3.726 6.056 7.453 4.658 15.837 8.85 27.016 9.781 14.44 0.932 27.948 3.261 40.524 6.522 6.521-1.863 13.042-2.795 20.029-3.261 2.329 0 3.726-3.726 6.521-4.658l0.466-4.658c2.795 4.192 2.329-1.397 0.466-4.192 3.261 2.795 4.192 5.124 5.589 6.987 0-1.397 3.726-6.521 3.727-0.466l0.931-6.055c1.397-0.932 1.863 5.124 3.261 0.931 1.397-4.192 4.192-0.932 6.987-2.329-0.932 1.863-0.466 5.59 2.794 3.261l3.727-3.261c2.329 5.59 6.055 3.261 7.918 2.329 20.495-13.042 40.99-28.413 60.553-43.784l-0.466 6.055 2.329-7.453c2.329 2.329 4.192 0.466 5.124-0.931 2.795-4.658 6.521-9.316 12.577-13.508-7.453 20.029-16.303 35.866-27.482 48.908l-4.658 5.59c0 3.261-0.932 7.453-4.658 7.918-1.863 0.466-5.59-0.932-8.384 1.863-1.397 1.863 3.261 5.59-0.466 2.795-3.261-2.329-6.521 0-10.248 0.932-2.795 0.932 1.863 3.726 2.795 5.589 0.932 1.863 1.863 3.726 1.398 6.056l-5.124-5.59c-6.055 3.261-9.782 9.316-14.906 13.974-2.329 1.863-1.397 5.124-1.397 7.918-3.261 0-6.987-0.932-8.85 0.932-1.397 1.863-0.932 4.658-0.932 7.453-4.658-0.466-5.124-7.453-9.315-6.056-4.192 0.932-8.85 1.397-12.577 3.727 2.795 5.59-4.658 2.329-3.726 3.26-6.987-4.192-13.042-7.453-20.495-4.658-15.837-5.124-35.4-2.795-49.84-0.931 0-2.329 0.466-4.658-0.466-5.124-0.932 2.329-3.726 1.397-3.26 1.397-8.85-6.055-17.7-9.782-27.016-14.905-8.384 0.932-16.303-3.261-18.632-5.59-6.521-6.055-13.974-2.795-20.029-4.192-13.042-3.261-17.7-16.769-19.098-26.084-0.932-4.658-4.658-6.521-6.055-6.056-6.055-19.563-15.371-37.263-22.824-55.429-1.863-4.658-1.397-9.316-1.397-14.44 2.329 0.932 4.658 0.466 4.192-2.794-2.329-15.371-7.918-27.016-13.974-38.195 3.261-15.837 3.726-34.469 11.179-48.443 6.521-12.576 18.632-19.098 27.016-29.811 2.795-3.726 2.795-8.85 5.59-12.11 9.316-9.316 18.632-19.098 28.879-27.482 4.658-3.726 10.247 0 17.234-1.397 2.329-8.384 11.645-15.837 20.495-13.508 3.726 0.932 11.179-8.85 13.508-9.782 3.726-1.397 1.863 3.726 1.863 6.987 8.85-6.987 20.961-10.713 32.14-14.906" fill="#ffffff" fill-rule="nonzero" stroke="none" stroke-width="1" stroke-linecap="butt" stroke-linejoin="miter" stroke-miterlimit="10" stroke-dasharray="" stroke-dashoffset="0" font-family="none" font-weight="none" font-size="none" text-anchor="none" style="mix-blend-mode: normal" data-fill-palette-color="tertiary"></path></g><g transform="matrix(1,0,0,1,64,112.2625087152318)"><svg viewBox="0 0 192 135.4749825695364" height="135.4749825695364" width="192"><g><svg viewBox="0 0 192 135.4749825695364" height="135.4749825695364" width="192"><g><svg viewBox="0 0 192 135.4749825695364" height="135.4749825695364" width="192"><g transform="matrix(1,0,0,1,0,100.82597594701986)"><svg viewBox="0 0 192 34.64900662251655" height="34.64900662251655" width="192"><g><svg viewBox="0 0 192 34.64900662251655" height="34.64900662251655" width="192" id="textblock"><g><svg viewBox="0 0 192 34.64900662251655" height="34.64900662251655" width="192"><g transform="matrix(1,0,0,1,0,0)"><svg width="192" viewBox="7.800000190734863 -41.650001525878906 332.1600036621094 59.95000076293945" height="34.64900662251655" data-palette-color="#ffffff"><path d="M8.4-2.6L8.4-2.6Q9.15-4.25 10.2-6.85 11.25-9.45 12.4-12.48 13.55-15.5 14.75-18.68 15.95-21.85 17-24.7 18.05-27.55 18.82-29.8 19.6-32.05 19.95-33.25L19.95-33.25Q16.8-31.95 14.55-29.3 12.3-26.65 11.15-22.65L11.15-22.65Q10-23.05 9.05-24.08 8.1-25.1 7.8-26.65L7.8-26.65Q8.3-28.95 9.68-30.85 11.05-32.75 13.15-34.1 15.25-35.45 18-36.18 20.75-36.9 23.9-36.9L23.9-36.9Q27.9-36.9 31.25-35.73 34.6-34.55 37-32.45 39.4-30.35 40.75-27.4 42.1-24.45 42.1-20.85L42.1-20.85Q42.1-15.95 40.3-11.5 38.5-7.05 35.43-3.65 32.35-0.25 28.3 1.78 24.25 3.8 19.8 3.8L19.8 3.8Q15.7 3.8 12.78 2.18 9.85 0.55 8.4-2.6ZM26.05-34.4L26.05-34.4Q23.55-34.4 21.3-33.7L21.3-33.7Q23.5-32.9 24.95-32.02 26.4-31.15 26.95-30.65L26.95-30.65Q26.55-30.1 25.78-28.7 25-27.3 23.98-25.3 22.95-23.3 21.8-20.93 20.65-18.55 19.55-16.05L19.55-16.05Q16.7-9.7 15.43-6.05 14.15-2.4 14.15-1L14.15-1Q14.85-0.75 15.85-0.65 16.85-0.55 18-0.55L18-0.55Q22.05-0.55 25.68-2.43 29.3-4.3 32.02-7.45 34.75-10.6 36.33-14.78 37.9-18.95 37.9-23.55L37.9-23.55Q37.9-28.7 34.7-31.55 31.5-34.4 26.05-34.4ZM61.65-20.7L61.65-20.7Q61.45-17.6 60.55-15.38 59.65-13.15 57.97-11.48 56.3-9.8 53.9-8.45 51.5-7.1 48.3-5.85L48.3-5.85Q48.3-5.55 48.27-5.23 48.25-4.9 48.25-4.55L48.25-4.55Q48.25-3.9 48.35-3.2 48.45-2.5 48.7-1.9 48.95-1.3 49.4-0.93 49.85-0.55 50.55-0.55L50.55-0.55Q51.9-0.55 53.2-1.15 54.5-1.75 55.67-2.63 56.85-3.5 57.87-4.53 58.9-5.55 59.7-6.4L59.7-6.4Q60.2-5.95 60.55-5.55L60.55-5.55Q58.3-2.55 55.62-0.58 52.95 1.4 50.55 1.95L50.55 1.95Q47.1 1.55 45.17-0.58 43.25-2.7 43.25-5.7L43.25-5.7Q43.25-7.75 43.82-9.88 44.4-12 45.42-13.98 46.45-15.95 47.82-17.7 49.2-19.45 50.77-20.75 52.35-22.05 54.02-22.8 55.7-23.55 57.35-23.55L57.35-23.55Q59.65-23.25 61.65-20.7ZM58.2-19.05L58.2-19.05Q56.85-18.85 55.4-17.95 53.95-17.05 52.67-15.55 51.4-14.05 50.35-12.05 49.3-10.05 48.7-7.75L48.7-7.75Q52.7-9.75 55.35-12.68 58-15.6 58.2-19.05ZM66.35-17.7L66.35-17.7Q66.35-18.6 66.47-19.4 66.6-20.2 67-20.78 67.4-21.35 68.1-21.68 68.8-22 69.95-22L69.95-22Q70.65-22 71.52-21.85 72.4-21.7 72.8-21.3L72.8-21.3Q72.6-20.45 72.47-19.8 72.35-19.15 72.27-18.38 72.2-17.6 72.15-16.53 72.1-15.45 72.05-13.75L72.05-13.75Q71.95-10.35 71.72-7.68 71.5-5 70.7-2.35L70.7-2.35Q70.7-2.15 70.85-2.15L70.85-2.15Q71.6-2.7 72.55-3.75 73.5-4.8 74.55-6.13 75.6-7.45 76.65-8.95 77.7-10.45 78.6-11.9L78.6-11.9Q79.8-14 81.25-17.15 82.7-20.3 83.65-23.9L83.65-23.9Q83.95-23.9 84.42-23.78 84.9-23.65 85.37-23.48 85.85-23.3 86.22-23.1 86.6-22.9 86.75-22.75L86.75-22.75Q86.65-20.6 85.72-18.35 84.8-16.1 83.5-14 82.2-11.9 80.75-10.05 79.3-8.2 78.1-6.85L78.1-6.85Q75.7-4.05 73.27-1.85 70.85 0.35 67.5 2.4L67.5 2.4Q66.2 1.9 65.45 1.07 64.7 0.25 64.7-0.65L64.7-0.65Q64.7-1.25 64.97-2.02 65.25-2.8 65.6-4.03 65.95-5.25 66.22-7.1 66.5-8.95 66.5-11.8L66.5-11.8Q66.5-13.45 66.42-15.13 66.35-16.8 66.35-17.7ZM103.89-20.7L103.89-20.7Q103.69-17.6 102.79-15.38 101.89-13.15 100.22-11.48 98.54-9.8 96.14-8.45 93.74-7.1 90.54-5.85L90.54-5.85Q90.54-5.55 90.52-5.23 90.49-4.9 90.49-4.55L90.49-4.55Q90.49-3.9 90.59-3.2 90.69-2.5 90.94-1.9 91.19-1.3 91.64-0.93 92.09-0.55 92.79-0.55L92.79-0.55Q94.14-0.55 95.44-1.15 96.74-1.75 97.92-2.63 99.09-3.5 100.12-4.53 101.14-5.55 101.94-6.4L101.94-6.4Q102.44-5.95 102.79-5.55L102.79-5.55Q100.54-2.55 97.87-0.58 95.19 1.4 92.79 1.95L92.79 1.95Q89.34 1.55 87.42-0.58 85.49-2.7 85.49-5.7L85.49-5.7Q85.49-7.75 86.07-9.88 86.64-12 87.67-13.98 88.69-15.95 90.07-17.7 91.44-19.45 93.02-20.75 94.59-22.05 96.27-22.8 97.94-23.55 99.59-23.55L99.59-23.55Q101.89-23.25 103.89-20.7ZM100.44-19.05L100.44-19.05Q99.09-18.85 97.64-17.95 96.19-17.05 94.92-15.55 93.64-14.05 92.59-12.05 91.54-10.05 90.94-7.75L90.94-7.75Q94.94-9.75 97.59-12.68 100.24-15.6 100.44-19.05ZM106.14-3.2L106.14-3.2Q106.14-5.4 107.19-9.38 108.24-13.35 110.14-18.65L110.14-18.65Q113.24-27.1 115.97-32.73 118.69-38.35 121.29-41.5L121.29-41.5Q121.89-41.4 122.77-41 123.64-40.6 124.49-40.13 125.34-39.65 126.02-39.15 126.69-38.65 126.89-38.35L126.89-38.35Q122.99-33.75 120.04-28.45 117.09-23.15 114.64-16.3L114.64-16.3Q112.54-10.4 111.44-5.68 110.34-0.95 110.34 2.2L110.34 2.2Q110.34 3.05 110.34 3.25 110.34 3.45 110.39 3.65L110.39 3.65Q109.69 3.55 109.19 3.3 108.69 3.05 108.54 2.7L108.54 2.7Q108.44 2.45 107.99 1.98 107.54 1.5 107.19 1.25L107.19 1.25Q106.74 0.95 106.44-0.33 106.14-1.6 106.14-3.2ZM123.69 1.75L123.69 1.75Q120.84 1.45 119.14-0.75 117.44-2.95 117.44-6.35L117.44-6.35Q117.44-8.35 118.04-10.5 118.64-12.65 119.74-14.68 120.84-16.7 122.34-18.5 123.84-20.3 125.59-21.6L125.59-21.6Q128.34-23.65 130.74-23.65L130.74-23.65Q132.34-22.8 133.89-20.1L133.89-20.1Q134.14-20.1 134.34-20.13 134.54-20.15 134.79-20.15L134.79-20.15Q137.44-20.15 137.44-15.45L137.44-15.45Q137.44-12.3 136.41-9.47 135.39-6.65 133.56-4.35 131.74-2.05 129.21-0.48 126.69 1.1 123.69 1.75ZM126.24-14L126.24-14Q125.39-12.85 124.64-11.5 123.89-10.15 123.34-8.78 122.79-7.4 122.49-6.13 122.19-4.85 122.19-3.85L122.19-3.85Q122.19-2.65 122.59-1.55 122.99-0.45 123.49-0.3L123.49-0.3Q125.74-0.8 127.61-2.18 129.49-3.55 130.86-5.6 132.24-7.65 133.01-10.25 133.79-12.85 133.79-15.8L133.79-15.8Q133.79-17.1 133.64-17.85 133.49-18.6 133.14-19.15L133.14-19.15Q130.94-18.5 129.21-17.05 127.49-15.6 126.24-14ZM136.19 16.55L136.19 16.55Q135.49 16.35 135.39 15.05L135.39 15.05Q135.19 14.4 135.11 13.5 135.04 12.6 135.04 11.45L135.04 11.45Q135.04 10.4 135.39 8.58 135.74 6.75 136.36 4.45 136.99 2.15 137.89-0.53 138.79-3.2 139.89-5.95L139.89-5.95Q141.24-9.4 142.24-11.93 143.24-14.45 143.91-16.3 144.59-18.15 145.01-19.35 145.44-20.55 145.69-21.4L145.69-21.4Q145.89-22 146.29-22.85 146.69-23.7 147.21-24.58 147.74-25.45 148.29-26.23 148.84-27 149.29-27.4L149.29-27.4Q151.04-27.15 152.59-26.5 154.14-25.85 154.49-25.25L154.49-25.25Q153.79-24.6 152.89-23.23 151.99-21.85 151.14-20.23 150.29-18.6 149.59-16.9 148.89-15.2 148.54-13.9L148.54-13.9Q149.04-14.75 149.84-15.75 150.64-16.75 152.29-18.5L152.29-18.5Q154.14-20.4 155.76-21.43 157.39-22.45 158.59-22.45L158.59-22.45Q160.49-22.45 161.71-21.4 162.94-20.35 162.94-18.7L162.94-18.7Q162.94-15.1 161.74-11.58 160.54-8.05 158.29-5.2L158.29-5.2Q157.44-4.1 156.29-3.1 155.14-2.1 153.89-1.33 152.64-0.55 151.44-0.1 150.24 0.35 149.29 0.35L149.29 0.35Q148.39 0.35 147.71-0.03 147.04-0.4 146.79-0.95L146.79-0.95Q148.74-2.1 150.59-4.15 152.44-6.2 154.01-8.88 155.59-11.55 156.76-14.65 157.94-17.75 158.54-20.95L158.54-20.95Q156.64-19.95 155.11-18.78 153.59-17.6 152.09-15.7L152.09-15.7Q150.29-13.5 149.24-12.15 148.19-10.8 147.51-9.85 146.84-8.9 146.41-8.08 145.99-7.25 145.49-6.05L145.49-6.05Q144.79-4.45 143.86-1.83 142.94 0.8 141.96 4.05 140.99 7.3 140.01 10.98 139.04 14.65 138.14 18.3L138.14 18.3Q137.59 18.2 137.19 17.5L137.19 17.5Q136.79 17.05 136.61 16.85 136.44 16.65 136.19 16.55ZM182.63-20.7L182.63-20.7Q182.43-17.6 181.53-15.38 180.63-13.15 178.96-11.48 177.28-9.8 174.88-8.45 172.48-7.1 169.28-5.85L169.28-5.85Q169.28-5.55 169.26-5.23 169.23-4.9 169.23-4.55L169.23-4.55Q169.23-3.9 169.33-3.2 169.43-2.5 169.68-1.9 169.93-1.3 170.38-0.93 170.83-0.55 171.53-0.55L171.53-0.55Q172.88-0.55 174.18-1.15 175.48-1.75 176.66-2.63 177.83-3.5 178.86-4.53 179.88-5.55 180.68-6.4L180.68-6.4Q181.18-5.95 181.53-5.55L181.53-5.55Q179.28-2.55 176.61-0.58 173.93 1.4 171.53 1.95L171.53 1.95Q168.08 1.55 166.16-0.58 164.23-2.7 164.23-5.7L164.23-5.7Q164.23-7.75 164.81-9.88 165.38-12 166.41-13.98 167.43-15.95 168.81-17.7 170.18-19.45 171.76-20.75 173.33-22.05 175.01-22.8 176.68-23.55 178.33-23.55L178.33-23.55Q180.63-23.25 182.63-20.7ZM179.18-19.05L179.18-19.05Q177.83-18.85 176.38-17.95 174.93-17.05 173.66-15.55 172.38-14.05 171.33-12.05 170.28-10.05 169.68-7.75L169.68-7.75Q173.68-9.75 176.33-12.68 178.98-15.6 179.18-19.05ZM183.73-1L183.73-1Q183.98-2.45 184.61-4.83 185.23-7.2 186.08-9.88 186.93-12.55 187.88-15.25 188.83-17.95 189.73-20.1L189.73-20.1Q190.38-21.65 190.88-22.53 191.38-23.4 191.98-24L191.98-24Q192.68-23.9 193.43-23.65 194.18-23.4 194.88-23.05 195.58-22.7 196.13-22.33 196.68-21.95 196.98-21.6L196.98-21.6Q195.63-20 194.61-17.95 193.58-15.9 192.53-12.7L192.53-12.7Q195.23-15.1 197.31-17.3 199.38-19.5 201.18-22.2L201.18-22.2Q201.48-22.45 202.23-22.45L202.23-22.45Q202.93-22.45 203.58-22.23 204.23-22 204.48-21.6L204.48-21.6Q203.58-19.2 203.58-16.85L203.58-16.85Q203.58-14.65 204.23-13.55L204.23-13.55Q204.18-13.25 203.56-12.4 202.93-11.55 202.18-10.8L202.18-10.8Q200.83-11.5 199.78-12.73 198.73-13.95 198.23-15.4L198.23-15.4Q195.88-13.75 194.23-12.18 192.58-10.6 191.41-8.68 190.23-6.75 189.41-4.25 188.58-1.75 187.83 1.7L187.83 1.7Q187.38 1.65 186.76 1.38 186.13 1.1 185.51 0.7 184.88 0.3 184.38-0.15 183.88-0.6 183.73-1ZM221.53-19.9L221.53-19.9Q221.48-18.95 221.2-17.93 220.93-16.9 220.53-16.07 220.13-15.25 219.68-14.7 219.23-14.15 218.83-14.15L218.83-14.15Q218.28-14.2 218.18-14.9L218.18-14.9Q218.18-15.05 218.3-15.38 218.43-15.7 218.58-16.1 218.73-16.5 218.85-16.9 218.98-17.3 218.98-17.6L218.98-17.6Q218.98-18.3 218.65-18.78 218.33-19.25 217.78-19.25L217.78-19.25Q215.78-19.25 214.73-16.75 213.68-14.25 213.68-9.4L213.68-9.4Q213.68-8.9 213.73-8.8L213.73-8.8Q214.78-8.85 215.6-8.88 216.43-8.9 217.23-8.9L217.23-8.9Q217.28-8.8 217.28-8.5L217.28-8.5Q217.28-8.05 217.08-7.85L217.08-7.85Q215.93-7.6 215.25-7.43 214.58-7.25 214.23-7.1 213.88-6.95 213.8-6.78 213.73-6.6 213.73-6.3L213.73-6.3Q213.73-5.9 213.75-5.5 213.78-5.1 213.78-4.5L213.78-4.5Q213.78-0.3 211.5 2.25 209.23 4.8 205.18 5.2L205.18 5.2Q204.48 5.15 203.73 4.8 202.98 4.45 202.3 3.9 201.63 3.35 201.13 2.68 200.63 2 200.43 1.3L200.43 1.3Q200.43-0.6 201.23-2.33 202.03-4.05 203.4-5.38 204.78-6.7 206.65-7.53 208.53-8.35 210.73-8.5L210.73-8.5Q210.73-9.75 210.48-10.95 210.23-12.15 209.95-13.28 209.68-14.4 209.43-15.48 209.18-16.55 209.18-17.6L209.18-17.6Q209.18-18.95 209.73-20.28 210.28-21.6 211.18-22.73 212.08-23.85 213.28-24.65 214.48-25.45 215.78-25.75L215.78-25.75Q216.33-25.6 217.25-24.88 218.18-24.15 219.08-23.25 219.98-22.35 220.68-21.43 221.38-20.5 221.53-19.9ZM205.03 2.9L205.03 2.9Q206.23 2.4 207.3 1.45 208.38 0.5 209.18-0.7 209.98-1.9 210.45-3.25 210.93-4.6 210.93-5.9L210.93-5.9Q209.93-5.75 208.73-4.98 207.53-4.2 206.48-3.13 205.43-2.05 204.73-0.9 204.03 0.25 204.03 1.1L204.03 1.1Q204.03 2.2 205.03 2.9ZM228.23-25.35L228.23-25.35Q227.93-25.6 227.68-26.15 227.43-26.7 227.43-27.25L227.43-27.25Q228.03-29 228.55-31.28 229.08-33.55 229.08-36.35L229.08-36.35Q229.08-37.6 228.95-38.9 228.83-40.2 228.48-41.65L228.48-41.65Q230.88-41.5 232.85-40.63 234.83-39.75 235.48-38.5L235.48-38.5Q234.63-33.95 232.88-30.6 231.13-27.25 228.23-25.35ZM276.32-26.95L276.32-26.95Q276.32-24.2 274.95-21.7 273.57-19.2 271.25-17.32 268.92-15.45 265.8-14.35 262.67-13.25 259.17-13.25L259.17-13.25Q257.92-13.25 257.2-13.58 256.47-13.9 255.57-14.85L255.57-14.85Q253.07-9.4 251.5-4.83 249.92-0.25 249.02 4.05L249.02 4.05Q247.12 3.6 245.92 2.48 244.72 1.35 243.72-0.35L243.72-0.35Q244.22-1.3 244.92-2.85 245.62-4.4 246.62-6.68 247.62-8.95 248.95-12.13 250.27-15.3 252.07-19.55L252.07-19.55Q252.87-21.5 253.47-22.95 254.07-24.4 254.52-25.68 254.97-26.95 255.35-28.2 255.72-29.45 256.12-30.95L256.12-30.95Q253.77-30.2 251.8-29.2 249.82-28.2 248.52-27.1L248.52-27.1Q248.07-27.4 247.6-28 247.12-28.6 246.72-29.33 246.32-30.05 246.02-30.8 245.72-31.55 245.67-32.15L245.67-32.15Q247.12-33.15 249.27-34 251.42-34.85 253.87-35.48 256.32-36.1 258.95-36.45 261.57-36.8 263.97-36.8L263.97-36.8Q266.82-36.8 269.12-36.08 271.42-35.35 273.02-34.05 274.62-32.75 275.47-30.95 276.32-29.15 276.32-26.95ZM267.42-32.95L267.42-32.95Q265.52-32.95 263.52-32.65L263.52-32.65 264.12-31.75Q263.62-31.1 262.87-29.8 262.12-28.5 261.22-26.68 260.32-24.85 259.25-22.6 258.17-20.35 256.97-17.85L256.97-17.85Q260.87-17.85 264.07-18.57 267.27-19.3 269.55-20.58 271.82-21.85 273.1-23.55 274.37-25.25 274.37-27.2L274.37-27.2Q274.37-29.8 272.62-31.38 270.87-32.95 267.42-32.95ZM290.22-20.2L290.22-20.2Q290.72-20.2 291.39-20.03 292.07-19.85 292.62-19.58 293.17-19.3 293.54-19 293.92-18.7 293.92-18.45L293.92-18.45Q292.92-16.35 292.07-14.23 291.22-12.1 290.62-10.15 290.02-8.2 289.69-6.5 289.37-4.8 289.37-3.55L289.37-3.55Q289.37-2.15 289.67-1.23 289.97-0.3 290.67 0.1L290.67 0.1Q290.07 0.5 289.12 0.75 288.17 1 287.42 1L287.42 1Q284.72 1 284.72-2.7L284.72-2.7Q284.72-5.55 286.62-10.5L286.62-10.5Q285.62-8.2 284.32-6.18 283.02-4.15 281.67-2.6 280.32-1.05 278.94-0.08 277.57 0.9 276.42 1.1L276.42 1.1Q274.57 1 273.42-0.68 272.27-2.35 272.27-4.95L272.27-4.95Q272.27-7.75 273.47-10.85 274.67-13.95 276.54-16.6 278.42-19.25 280.62-21.03 282.82-22.8 284.87-22.9L284.87-22.9Q285.37-22.75 285.99-22.3 286.62-21.85 287.19-21.25 287.77-20.65 288.17-20.03 288.57-19.4 288.62-18.95L288.62-18.95Q286.62-18.65 284.49-17 282.37-15.35 280.64-13.03 278.92-10.7 277.82-8.05 276.72-5.4 276.72-3.1L276.72-3.1Q276.72-2.15 277.42-1.9L277.42-1.9Q278.87-2.2 280.77-4.38 282.67-6.55 285.37-11.1L285.37-11.1Q285.87-12 286.49-13.1 287.12-14.2 287.77-15.4 288.42-16.6 289.04-17.82 289.67-19.05 290.22-20.2ZM296.37-8.8L296.37-8.8Q296.37-11.65 297.54-14.33 298.72-17 300.64-19.07 302.57-21.15 305.04-22.43 307.52-23.7 310.17-23.7L310.17-23.7Q312.77-23.7 314.17-22.4 315.57-21.1 315.57-18.7L315.57-18.7Q315.57-17.55 315.24-16.48 314.92-15.4 314.39-14.55 313.87-13.7 313.17-13.18 312.47-12.65 311.77-12.65L311.77-12.65Q311.17-12.65 310.54-13.03 309.92-13.4 309.52-14L309.52-14Q312.87-17.05 312.87-19.55L312.87-19.55Q312.87-21 311.72-21L311.72-21Q310.72-21 309.22-20.05 307.72-19.1 306.32-17.55L306.32-17.55Q304.17-15.15 303.04-12.23 301.92-9.3 301.92-6.1L301.92-6.1Q301.92-2.05 303.72-1.25L303.72-1.25Q304.47-1.35 305.47-1.7 306.47-2.05 307.62-2.63 308.77-3.2 309.99-3.95 311.22-4.7 312.37-5.55L312.37-5.55Q312.57-5.4 312.72-5.1 312.87-4.8 312.87-4.55L312.87-4.55Q312.02-3.5 310.92-2.5 309.82-1.5 308.62-0.68 307.42 0.15 306.29 0.73 305.17 1.3 304.32 1.45L304.32 1.45Q302.67 1.3 301.22 0.43 299.77-0.45 298.69-1.85 297.62-3.25 296.99-5.05 296.37-6.85 296.37-8.8ZM317.16-4.7L317.16-4.7Q317.16-6.5 318.09-9.7 319.01-12.9 320.51-16.7 322.01-20.5 323.91-24.55 325.81-28.6 327.74-32.1 329.66-35.6 331.44-38.15 333.21-40.7 334.46-41.6L334.46-41.6Q335.16-41.55 335.99-41 336.81-40.45 337.51-39.68 338.21-38.9 338.69-38.05 339.16-37.2 339.16-36.5L339.16-36.5Q336.91-34.7 334.59-31.88 332.26-29.05 330.16-25.68 328.06-22.3 326.29-18.53 324.51-14.75 323.31-11.1L323.31-11.1Q324.91-13.85 326.66-16.1 328.41-18.35 330.16-19.95 331.91-21.55 333.59-22.43 335.26-23.3 336.76-23.35L336.76-23.35Q338.96-21.75 338.96-19.1L338.96-19.1Q338.96-17.5 338.31-15.88 337.66-14.25 336.59-12.88 335.51-11.5 334.14-10.53 332.76-9.55 331.26-9.25L331.26-9.25Q331.76-7.5 332.54-5.7 333.31-3.9 334.39-2.2 335.46-0.5 336.84 0.95 338.21 2.4 339.96 3.4L339.96 3.4Q339.71 3.9 339.21 4.4 338.71 4.9 338.01 5.28 337.31 5.65 336.49 5.88 335.66 6.1 334.86 6.1L334.86 6.1Q333.51 6.1 332.34 4.75 331.16 3.4 330.21 0.85L330.21 0.85Q329.46-1.2 328.76-4.05 328.06-6.9 327.51-10L327.51-10Q328.21-10.45 329.26-11.33 330.31-12.2 331.46-13.35L331.46-13.35Q335.86-17.6 335.86-20.7L335.86-20.7Q335.86-21.1 335.31-21.1L335.31-21.1Q334.31-21.05 332.96-20.15 331.61-19.25 330.09-17.65 328.56-16.05 326.99-13.9 325.41-11.75 323.96-9.25L323.96-9.25Q323.36-8.25 322.86-6.95 322.36-5.65 321.99-4.28 321.61-2.9 321.41-1.55 321.21-0.2 321.21 0.95L321.21 0.95Q321.21 1.65 321.36 2.1L321.36 2.1Q319.81 1.95 319.46 1.3L319.46 1.3Q319.06 0.7 318.79 0.33 318.51-0.05 318.21-0.3L318.21-0.3Q317.76-0.65 317.46-1.8 317.16-2.95 317.16-4.7Z" opacity="1" transform="matrix(1,0,0,1,0,0)" fill="#ffffff" class="undefined-text-0" data-fill-palette-color="primary" id="text-0"></path></svg></g></svg></g></svg></g></svg></g><g transform="matrix(1,0,0,1,48.11487461519153,0)"><svg viewBox="0 0 95.77025076961694 95.76985430463576" height="95.76985430463576" width="95.77025076961694"><g><svg xmlns="http://www.w3.org/2000/svg" xmlns:xlink="http://www.w3.org/1999/xlink" version="1.0" x="0" y="0" viewBox="4.667734146118164 4.6859588623046875 90.3050308227539 90.30465698242188" enable-background="new 0 0 100 100" xml:space="preserve" height="95.76985430463576" width="95.77025076961694" class="icon-icon-0" data-fill-palette-color="accent" id="icon-0"><path d="M17.504 35.743c-1.334 8.611 0.522 17.134 5.093 23.382 3.514 4.801 8.413 7.905 13.796 8.739 5.677 0.88 11.253-0.429 15.703-3.685 1.248-0.912 2.36-1.946 3.326-3.076-2.222 0.978-4.814 1.267-7.626 0.831-11.717-1.816-19.673-13.464-17.735-25.964 0.934-6.03 4.384-11.497 9.713-15.397 6.768-4.952 15.953-6.97 25.201-5.537 7.474 1.158 17.67 5.964 25.56 15.213 0 0-22.835-39.421-56.115-20.356C23.689 16.04 18.653 28.323 17.504 35.743z" fill="#ffffff" data-fill-palette-color="accent"></path><path d="M82.544 65.256c1.659-8.555 0.125-17.141-4.207-23.557-3.331-4.931-8.109-8.217-13.457-9.253-5.639-1.094-11.261 0.004-15.83 3.091-1.282 0.863-2.431 1.854-3.44 2.947 2.257-0.894 4.859-1.084 7.652-0.543 11.64 2.257 19.151 14.196 16.744 26.616-1.161 5.989-4.815 11.324-10.288 15.019-6.949 4.692-16.205 6.364-25.393 4.582C26.902 82.719 16.894 77.532 9.358 67.992c0 0 21.331 40.255 55.307 22.457C75.621 84.712 81.115 72.628 82.544 65.256z" fill="#ffffff" data-fill-palette-color="accent"></path><path d="M35.726 82.88c8.611 1.334 17.133-0.522 23.381-5.094 4.801-3.514 7.905-8.413 8.74-13.796 0.879-5.676-0.429-11.253-3.686-15.702-0.912-1.248-1.946-2.36-3.076-3.327 0.979 2.222 1.267 4.815 0.831 7.626-1.816 11.717-13.463 19.673-25.965 17.736-6.029-0.934-11.497-4.385-15.395-9.713-4.952-6.768-6.971-15.954-5.538-25.202 1.158-7.474 5.964-17.67 15.213-25.559 0 0-39.421 22.835-20.356 56.115C16.022 76.695 28.305 81.73 35.726 82.88z" fill="#ffffff" data-fill-palette-color="accent"></path><path d="M90.432 35.718c-5.738-10.955-17.822-16.45-25.194-17.879-8.554-1.659-17.141-0.125-23.557 4.208-4.931 3.331-8.217 8.108-9.254 13.456-1.094 5.64 0.004 11.261 3.092 15.83 0.863 1.282 1.854 2.431 2.946 3.441-0.894-2.257-1.084-4.859-0.542-7.652 2.257-11.64 14.196-19.151 26.615-16.744 5.99 1.161 11.324 4.816 15.019 10.289 4.693 6.949 6.363 16.204 4.583 25.392-1.44 7.423-6.626 17.431-16.167 24.966C67.973 91.025 108.228 69.694 90.432 35.718z" fill="#ffffff" data-fill-palette-color="accent"></path></svg></g></svg></g><g></g></svg></g></svg></g></svg></g></svg></g><defs></defs></svg><rect width="320" height="360" fill="none" stroke="none" visibility="hidden"></rect></g></svg></g></svg>